<?xml version="1.0" standalone="no"?>
<!DOCTYPE svg PUBLIC "-//W3C//DTD SVG 20010904//EN"
 "http://www.w3.org/TR/2001/REC-SVG-20010904/DTD/svg10.dtd">
<svg version="1.0" xmlns="http://www.w3.org/2000/svg"
 width="1280.000000pt" height="541.000000pt" viewBox="0 0 1280.000000 541.000000"
 preserveAspectRatio="xMidYMid meet">
<metadata>
Created by potrace 1.15, written by Peter Selinger 2001-2017
</metadata>
<g transform="translate(0.000000,541.000000) scale(0.100000,-0.100000)"
fill="#000000" stroke="none">
<path d="M3335 5246 c-91 -29 -154 -74 -219 -156 -83 -105 -153 -279 -176
-435 -13 -95 -12 -247 3 -319 11 -53 16 -61 42 -68 16 -4 30 -6 31 -5 2 1 -6
27 -16 57 -31 88 -26 258 10 389 19 69 212 188 376 232 61 17 111 22 219 22
281 2 485 -56 1089 -313 l239 -101 34 32 c40 39 42 55 7 63 -14 4 -146 54
-292 112 -384 153 -541 206 -735 250 -190 43 -435 43 -575 0 -131 -40 -290
-129 -306 -173 -4 -9 -9 -13 -12 -10 -3 3 4 24 16 47 87 171 192 262 299 262
48 -1 122 -29 136 -52 13 -20 25 2 25 45 0 42 -1 44 -37 54 -21 6 -54 11 -73
11 l-35 1 28 24 c15 14 35 25 43 25 8 0 14 5 14 10 0 14 -87 11 -135 -4z
m-294 -463 c-12 -20 -14 -14 -5 12 4 9 9 14 11 11 3 -2 0 -13 -6 -23z"/>
<path d="M9330 5251 c0 -6 6 -11 14 -11 8 0 27 -11 42 -23 l27 -24 -62 -6
c-35 -4 -67 -9 -72 -13 -12 -7 -12 -91 0 -99 5 -3 12 -1 16 5 15 24 86 50 137
50 96 0 175 -60 259 -195 27 -43 49 -83 49 -87 0 -4 -28 12 -62 36 -153 106
-275 146 -473 153 -174 6 -263 -6 -489 -66 -144 -39 -257 -79 -613 -220 -154
-61 -286 -111 -292 -111 -21 0 -11 -26 22 -58 l34 -33 179 76 c499 211 574
239 769 289 367 92 624 66 853 -88 111 -75 116 -81 137 -190 21 -115 17 -269
-9 -330 -9 -22 -15 -40 -14 -42 2 -1 15 0 30 3 42 8 53 59 52 238 0 130 -4
164 -27 255 -77 295 -242 482 -443 498 -44 3 -64 1 -64 -7z m440 -475 c0 -18
-17 8 -24 34 l-7 25 15 -25 c9 -14 15 -29 16 -34z"/>
<path d="M3473 5223 c-31 -6 -29 -23 2 -23 67 0 135 -57 135 -113 0 -26 3 -29
23 -23 12 3 32 6 45 6 17 0 22 6 22 26 0 37 -36 98 -70 117 -27 16 -101 21
-157 10z"/>
<path d="M9167 5211 c-37 -24 -67 -74 -67 -111 0 -26 4 -30 30 -31 17 -1 36
-2 42 -3 7 -1 14 8 16 19 8 49 26 75 66 95 23 11 54 20 69 20 37 0 34 16 -4
24 -60 12 -123 6 -152 -13z"/>
<path d="M5909 5160 c-12 -34 -18 -36 -119 -45 -130 -12 -200 -51 -250 -138
-16 -28 -28 -53 -26 -55 2 -2 26 8 53 21 109 56 228 72 301 41 185 -77 159
-338 -42 -430 -144 -66 -320 -71 -539 -15 l-118 30 -34 -37 c-41 -45 -41 -44
93 -78 207 -51 421 -53 572 -3 206 67 310 212 310 434 0 104 -6 127 -34 123
-17 -3 -28 11 -61 80 -53 108 -86 131 -106 72z"/>
<path d="M6837 5178 c-9 -7 -30 -44 -47 -83 -39 -88 -47 -97 -70 -85 -15 8
-19 4 -24 -22 -3 -17 -6 -68 -6 -113 0 -264 164 -423 471 -456 141 -15 378 13
502 60 30 12 28 21 -12 68 l-19 23 -119 -31 c-319 -82 -585 -28 -675 138 -30
54 -41 138 -25 188 13 41 64 94 112 116 74 34 195 20 307 -37 26 -13 50 -24
53 -24 8 0 -24 60 -52 99 -38 50 -127 87 -226 96 -92 8 -117 17 -117 44 0 11
-7 22 -16 25 -20 8 -17 8 -37 -6z"/>
<path d="M4934 5061 c-31 -19 -74 -67 -74 -82 0 -4 16 -1 35 7 45 18 108 18
145 -1 82 -42 88 -199 13 -337 -36 -65 -121 -143 -190 -175 -32 -14 -60 -27
-61 -29 -7 -5 42 -64 54 -64 6 0 43 16 83 36 87 43 170 118 210 187 33 59 65
169 58 204 -5 29 -3 29 74 -6 35 -15 90 -38 122 -50 58 -21 59 -21 64 -2 8 31
33 34 136 16 132 -22 207 -4 272 66 30 32 30 32 5 25 -83 -23 -192 -15 -299
20 -25 9 -120 51 -211 94 -91 43 -189 85 -219 94 -76 22 -178 21 -217 -3z"/>
<path d="M7640 5061 c-30 -9 -127 -52 -215 -93 -202 -96 -285 -122 -390 -122
-44 0 -93 3 -110 8 l-30 9 30 -33 c65 -69 140 -87 272 -65 103 18 128 15 136
-16 5 -19 6 -19 64 2 32 12 87 35 122 51 66 29 84 26 74 -12 -6 -21 23 -122
49 -174 44 -86 170 -190 276 -227 29 -10 34 -8 56 18 28 31 32 43 15 43 -31 0
-126 60 -173 110 -67 70 -103 139 -117 227 -14 79 -2 136 35 179 29 34 112 44
169 21 20 -9 37 -14 37 -11 0 17 -26 49 -62 74 -37 27 -49 30 -112 29 -39 0
-96 -8 -126 -18z"/>
<path d="M3561 4905 c-45 -85 -149 -162 -256 -189 -62 -17 -155 -21 -155 -8 0
9 78 61 135 89 45 23 131 49 187 58 26 4 44 15 59 36 l22 31 -59 -7 c-95 -11
-172 -33 -243 -70 -77 -41 -173 -117 -219 -174 l-32 -39 73 5 c63 5 80 2 134
-21 34 -14 81 -26 104 -26 42 0 42 0 24 20 -24 26 -16 33 30 24 49 -9 122 -59
162 -112 71 -94 86 -252 33 -340 -16 -26 -26 -32 -54 -32 -21 0 -45 9 -63 24
-77 64 -122 63 -275 -9 -57 -26 -57 -27 -42 -50 8 -13 22 -26 30 -29 8 -3 48
17 90 44 42 28 88 50 102 50 18 0 41 -15 74 -50 41 -43 53 -50 86 -50 53 0 97
47 123 130 43 140 6 285 -101 395 l-49 50 43 -3 c68 -6 148 15 197 51 l44 32
-60 7 c-33 3 -75 11 -94 17 -19 6 -38 8 -42 5 -5 -3 -9 -2 -9 3 0 4 16 18 35
31 19 12 51 47 72 78 42 64 38 74 -37 74 -43 0 -46 -2 -69 -45z"/>
<path d="M9111 4941 c-12 -7 -9 -17 12 -54 26 -44 89 -107 107 -107 6 0 10 -5
10 -11 0 -6 -6 -9 -12 -6 -7 2 -26 0 -43 -5 -16 -6 -57 -13 -90 -17 l-60 -6
43 -32 c50 -36 134 -58 199 -50 l43 5 -59 -64 c-81 -87 -105 -149 -105 -274 0
-76 4 -104 21 -142 31 -67 67 -98 115 -98 33 0 45 7 86 50 34 35 56 50 74 50
15 0 59 -22 103 -51 l77 -52 30 30 30 30 -64 30 c-140 65 -198 68 -266 14 -30
-25 -47 -32 -73 -29 -29 3 -37 10 -57 50 -53 107 -17 276 77 361 48 43 84 63
134 72 41 8 46 1 20 -27 -15 -17 -14 -18 26 -18 23 0 70 12 104 26 54 23 71
26 135 21 l73 -6 -37 42 c-129 145 -273 221 -458 242 l-60 7 16 -24 c19 -28
51 -44 104 -51 22 -3 65 -15 96 -27 65 -24 192 -103 182 -113 -24 -23 -176 6
-256 50 -52 28 -133 109 -160 161 -15 28 -22 32 -60 32 -24 0 -49 -4 -57 -9z"/>
<path d="M3686 4875 c-9 -13 -16 -26 -16 -29 0 -2 21 -9 48 -15 83 -17 207
-66 287 -112 94 -53 209 -158 250 -227 34 -58 39 -60 154 -69 83 -6 83 -6 72
15 -19 35 -199 189 -301 257 -116 78 -233 136 -350 175 -107 36 -123 37 -144
5z"/>
<path d="M8985 4876 c-220 -71 -482 -239 -650 -416 l-40 -43 90 7 c118 8 129
12 148 50 20 43 119 150 183 196 94 70 239 134 367 161 26 6 47 13 47 15 0 3
-7 16 -16 29 -20 31 -39 31 -129 1z"/>
<path d="M2189 4766 c-92 -33 -159 -101 -159 -162 0 -17 11 -47 24 -67 l25
-36 -58 -39 c-78 -52 -132 -66 -234 -60 -71 4 -94 10 -155 40 -70 35 -73 35
-94 18 l-22 -17 55 -32 c88 -50 151 -66 269 -66 103 0 107 1 191 42 103 50
186 129 155 147 -49 29 -66 49 -66 75 0 62 72 111 164 111 48 0 60 -4 92 -32
51 -45 72 -99 84 -211 20 -194 51 -221 273 -237 161 -13 224 -23 317 -55 56
-19 77 -22 92 -14 13 7 17 14 11 20 -25 25 -246 85 -385 105 -61 8 -83 24 -74
52 4 12 55 82 113 155 107 134 127 168 121 208 -2 18 -19 4 -98 -87 -189 -218
-228 -252 -271 -239 -25 8 -37 39 -50 132 -18 130 -60 200 -143 239 -57 27
-121 30 -177 10z"/>
<path d="M10452 4767 c-88 -33 -144 -120 -162 -249 -26 -186 -63 -183 -243 20
-63 70 -129 143 -146 162 l-33 35 6 -48 c5 -39 15 -59 54 -105 79 -92 182
-232 182 -247 0 -19 -25 -31 -80 -39 -131 -20 -278 -57 -354 -89 l-48 -20 25
-13 c22 -12 34 -10 97 11 94 32 157 43 318 55 223 17 253 44 272 239 12 126
31 170 94 219 56 43 180 23 226 -36 38 -48 25 -84 -46 -128 -18 -11 -16 -15
26 -58 121 -125 301 -167 477 -111 43 13 97 37 121 52 l42 28 -21 16 c-21 16
-26 15 -92 -19 -60 -30 -83 -36 -154 -40 -101 -5 -154 8 -234 59 l-59 38 26
38 c49 73 11 158 -93 209 -64 32 -149 41 -201 21z"/>
<path d="M2585 4709 c-67 -26 -100 -52 -92 -73 6 -15 12 -13 44 13 21 16 61
41 88 55 60 30 33 34 -40 5z"/>
<path d="M10189 4695 c35 -19 75 -44 87 -56 22 -20 24 -21 30 -4 9 22 -23 48
-94 75 -82 31 -94 23 -23 -15z"/>
<path d="M3874 4693 c15 -38 83 -127 130 -170 166 -150 442 -228 683 -194 64
9 69 13 49 43 -16 22 -20 23 -184 23 -189 1 -260 14 -373 70 -66 34 -131 94
-144 136 -6 17 -2 27 14 40 l21 17 -32 20 c-43 26 -172 38 -164 15z"/>
<path d="M4211 4690 c13 -11 69 -34 124 -51 192 -60 340 -150 406 -246 41 -59
53 -151 24 -183 -31 -34 -64 -25 -121 34 l-52 53 -108 12 c-60 7 -121 14 -135
17 -25 6 -27 3 -33 -44 -3 -27 -17 -71 -31 -96 l-24 -46 46 0 c61 0 125 32
160 80 l29 38 64 -56 c68 -57 168 -112 208 -112 51 0 89 26 107 74 17 45 17
49 -1 108 -23 78 -77 161 -139 216 -103 90 -309 183 -469 211 -80 15 -82 14
-55 -9z"/>
<path d="M8505 4695 c-305 -69 -528 -231 -581 -423 -16 -58 -16 -64 1 -108 13
-35 25 -49 51 -60 48 -20 71 -18 139 15 52 25 158 105 176 133 3 5 20 -8 38
-30 40 -51 103 -82 165 -82 l47 0 -26 44 c-14 24 -28 67 -32 96 -6 49 -7 52
-32 46 -14 -3 -75 -10 -135 -17 l-108 -12 -52 -53 c-36 -37 -60 -54 -78 -54
-37 0 -61 33 -61 83 0 141 176 284 453 368 41 12 91 33 110 46 32 22 33 23 10
22 -14 -1 -52 -7 -85 -14z"/>
<path d="M8845 4701 c-33 -4 -72 -14 -87 -24 -26 -18 -26 -19 -8 -37 57 -57
-91 -183 -267 -227 -50 -13 -113 -17 -235 -18 -164 0 -168 -1 -184 -23 -20
-30 -15 -34 49 -43 140 -20 315 1 451 55 151 60 256 141 326 252 44 70 46 75
28 72 -7 0 -40 -4 -73 -7z"/>
<path d="M865 4676 c-162 -33 -307 -103 -425 -207 l-53 -46 64 -35 63 -36 68
63 c77 71 170 123 278 156 147 44 367 26 520 -43 54 -24 69 -27 89 -18 32 15
20 26 -84 78 -178 89 -360 120 -520 88z"/>
<path d="M11665 4674 c-110 -22 -193 -53 -283 -102 l-83 -46 27 -14 c24 -12
32 -11 95 17 102 46 197 65 324 65 188 0 344 -59 471 -178 l69 -64 57 32 c32
17 58 34 58 37 0 18 -121 114 -202 159 -158 90 -373 128 -533 94z"/>
<path d="M1660 4621 c-102 -103 -264 -165 -575 -220 -267 -47 -359 -86 -471
-196 -73 -72 -110 -141 -130 -243 -13 -66 -13 -82 1 -135 25 -96 64 -138 149
-157 75 -17 142 3 197 59 64 63 78 113 56 199 -9 34 -32 86 -50 115 -44 66
-115 147 -131 147 -7 0 -23 -11 -36 -25 l-23 -24 60 -61 c71 -72 113 -151 113
-211 0 -147 -195 -190 -262 -58 -25 48 -24 153 2 223 59 156 244 257 446 243
91 -6 145 -25 221 -74 123 -81 182 -241 139 -378 l-13 -40 -8 30 c-31 119
-205 141 -261 33 -15 -29 -15 -40 -5 -92 7 -34 9 -62 3 -68 -4 -4 -49 -15 -99
-22 -97 -14 -133 -32 -151 -72 -15 -31 -16 -94 -2 -94 6 0 10 8 10 19 0 28 47
70 93 82 26 7 85 8 166 4 147 -8 180 0 248 67 173 169 87 512 -157 627 l-60
28 53 7 c73 10 221 61 294 102 73 40 175 132 210 187 13 22 23 40 21 41 -2 1
-23 -18 -48 -43z"/>
<path d="M11090 4664 c0 -39 137 -175 230 -227 76 -42 223 -93 297 -103 l53
-7 -60 -28 c-246 -116 -331 -457 -157 -627 68 -67 100 -75 252 -68 80 4 143 3
164 -3 41 -13 91 -58 91 -83 0 -10 5 -18 10 -18 15 0 12 67 -4 99 -19 35 -72
58 -165 70 -40 5 -78 14 -84 20 -7 7 -6 27 2 63 11 46 11 59 -2 90 -48 115
-224 97 -264 -27 l-10 -30 -12 40 c-40 141 21 302 144 381 76 48 126 64 220
71 192 13 363 -75 437 -225 31 -64 37 -192 11 -241 -37 -71 -118 -99 -188 -65
-50 23 -75 66 -75 129 0 63 37 131 115 211 l56 57 -22 23 c-12 13 -28 24 -34
24 -33 0 -147 -154 -176 -236 -34 -97 -20 -162 51 -228 57 -53 124 -72 197
-56 62 14 94 39 125 97 67 125 13 333 -117 450 -110 100 -205 138 -456 183
-188 33 -356 78 -422 112 -70 35 -154 96 -181 130 -14 18 -26 28 -26 22z"/>
<path d="M150 4598 c0 -3 13 -38 30 -77 44 -107 47 -155 16 -213 -14 -27 -23
-48 -20 -48 3 0 18 7 35 15 36 19 69 70 69 107 0 27 2 26 113 -49 61 -42 129
-90 150 -106 l39 -30 30 30 30 31 -53 34 c-30 19 -85 52 -124 73 -129 72 -189
114 -252 177 -35 34 -63 59 -63 56z"/>
<path d="M2353 4538 c-33 -35 -91 -103 -128 -153 -162 -216 -237 -289 -345
-339 -98 -46 -238 -32 -374 36 l-39 20 7 -34 c15 -81 18 -247 6 -299 -41 -175
-168 -297 -360 -345 -90 -23 -279 -15 -370 16 -155 52 -274 152 -338 287 -36
76 -37 81 -36 193 0 120 20 205 73 307 l20 40 -66 42 c-78 50 -78 50 -134 -60
-48 -97 -79 -206 -79 -281 0 -56 1 -58 34 -72 41 -17 65 -51 100 -141 59 -151
135 -250 239 -314 l38 -23 -48 -28 c-118 -68 -177 -158 -176 -273 0 -57 6 -79
37 -142 43 -87 115 -169 194 -222 31 -21 57 -43 57 -48 0 -5 -26 -27 -57 -48
-79 -53 -151 -135 -194 -222 -65 -131 -49 -249 47 -344 24 -24 65 -56 92 -71
l48 -28 -38 -23 c-104 -64 -180 -163 -239 -314 -35 -90 -59 -124 -100 -141
-33 -14 -34 -16 -34 -72 0 -32 7 -85 15 -117 17 -66 81 -207 111 -243 l20 -24
66 43 67 42 -20 40 c-53 102 -73 187 -73 307 -1 112 0 117 36 193 64 135 183
235 338 287 91 31 280 39 370 16 192 -48 319 -170 360 -345 12 -52 9 -218 -6
-299 l-7 -34 39 20 c136 68 276 82 374 36 108 -50 183 -123 345 -339 65 -86
182 -215 196 -215 4 0 9 10 13 22 4 17 -4 33 -33 63 -21 22 -91 111 -156 199
-65 87 -147 189 -183 227 -73 78 -174 149 -245 173 -53 18 -191 22 -230 7 -24
-10 -25 -9 -32 71 -17 201 -82 345 -215 478 -88 88 -158 133 -266 170 -75 26
-80 26 -93 -12 -42 -119 -180 -183 -313 -144 -173 50 -251 198 -183 345 34 72
140 175 249 241 47 29 86 54 86 55 0 1 -39 26 -86 55 -109 66 -215 169 -249
241 -68 147 10 295 183 345 133 39 271 -25 313 -144 13 -38 18 -38 93 -12 108
37 178 82 266 170 133 133 198 277 215 477 l7 81 30 -10 c16 -6 70 -8 121 -6
84 4 99 8 167 43 103 54 218 171 365 370 65 88 135 178 156 200 29 30 37 46
33 63 -4 12 -9 22 -13 22 -4 0 -34 -28 -68 -62z"/>
<path d="M10365 4580 c-5 -16 3 -32 32 -63 21 -23 92 -114 157 -202 149 -200
274 -327 371 -375 59 -29 83 -35 155 -38 47 -2 102 0 121 6 l36 10 7 -84 c22
-273 170 -498 401 -609 50 -24 106 -47 125 -50 33 -6 36 -4 48 27 17 48 68
105 115 131 63 32 173 31 248 -4 144 -67 194 -198 129 -335 -32 -67 -149 -178
-248 -237 -45 -27 -82 -50 -82 -52 0 -2 37 -25 82 -52 99 -59 216 -170 248
-237 65 -137 15 -268 -129 -335 -75 -35 -185 -36 -248 -4 -47 26 -98 83 -115
131 -12 31 -15 33 -48 27 -19 -3 -76 -26 -125 -50 -224 -108 -369 -322 -399
-590 l-11 -102 -25 9 c-14 5 -68 8 -120 6 -84 -3 -103 -8 -165 -38 -97 -48
-223 -175 -371 -375 -65 -88 -136 -179 -157 -202 -29 -31 -37 -47 -32 -63 3
-11 10 -20 14 -20 16 0 140 140 226 255 183 244 295 325 447 325 79 0 158 -20
241 -62 l38 -19 -8 48 c-4 26 -8 104 -8 173 0 124 0 126 37 203 47 98 114 165
211 211 98 47 174 60 310 54 91 -5 127 -11 194 -36 246 -91 379 -283 359 -518
-6 -74 -41 -193 -77 -265 l-18 -36 66 -43 66 -43 20 24 c62 77 127 263 127
365 0 51 -2 54 -32 67 -48 20 -65 44 -103 142 -62 156 -127 244 -230 306 l-54
33 37 16 c59 27 158 124 178 175 27 73 16 184 -27 265 -39 74 -143 184 -212
224 -26 16 -47 29 -47 31 0 2 21 15 47 31 75 44 175 151 214 229 42 85 52 189
24 260 -19 51 -118 148 -177 175 l-37 16 54 33 c103 62 168 150 230 306 38 98
55 122 103 142 30 13 32 16 32 67 0 102 -65 288 -127 365 l-20 24 -66 -42 -66
-43 18 -37 c36 -71 71 -191 77 -265 20 -235 -113 -427 -359 -518 -67 -25 -103
-31 -194 -36 -136 -6 -212 7 -310 54 -97 46 -164 113 -211 211 -37 77 -37 79
-37 203 0 69 4 146 8 172 l8 47 -83 -36 c-70 -30 -98 -37 -175 -41 -90 -4 -95
-3 -166 31 -92 43 -176 125 -302 292 -86 115 -210 255 -226 255 -4 0 -11 -9
-14 -20z"/>
<path d="M12570 4531 c-36 -37 -96 -85 -135 -107 -38 -23 -114 -67 -168 -99
-53 -31 -99 -60 -102 -64 -2 -5 8 -20 23 -34 l27 -26 150 103 150 102 7 -39
c8 -44 29 -72 70 -93 39 -20 39 -19 11 32 -32 57 -28 110 16 214 17 40 31 74
31 76 0 12 -21 -6 -80 -65z"/>
<path d="M3010 4175 c0 -4 13 -26 29 -49 49 -71 145 -152 233 -196 71 -35 89
-40 137 -38 68 4 76 21 36 78 -33 47 -162 152 -183 148 -31 -6 -20 -24 39 -63
63 -42 96 -80 79 -90 -15 -9 -90 14 -140 43 -25 15 -76 57 -115 93 -62 58
-115 93 -115 74z"/>
<path d="M9760 4173 c-8 -3 -48 -37 -87 -74 -96 -90 -238 -162 -258 -129 -8
14 51 71 105 101 40 23 47 41 18 47 -22 4 -167 -116 -191 -159 -30 -53 -19
-69 47 -69 102 0 271 107 360 229 45 61 46 69 6 54z"/>
<path d="M2904 4101 c44 -46 109 -75 152 -67 l35 7 -28 33 c-24 28 -36 34 -83
39 -30 3 -66 8 -80 13 l-25 7 29 -32z"/>
<path d="M9875 4120 c-11 -5 -40 -9 -65 -9 -39 -1 -49 -6 -73 -36 l-27 -34 33
-6 c40 -8 88 10 135 49 45 38 43 56 -3 36z"/>
<path d="M5795 4094 c-393 -18 -567 -27 -720 -39 -1323 -104 -2391 -335 -3060
-665 -433 -213 -647 -440 -647 -685 0 -245 215 -473 647 -685 413 -202 908
-350 1625 -485 494 -93 1172 -169 1850 -207 317 -17 1503 -17 1820 0 678 38
1356 114 1850 207 723 136 1246 294 1645 495 420 213 627 435 627 675 0 240
-208 464 -627 675 -400 202 -923 359 -1645 495 -481 91 -1138 165 -1815 205
-174 11 -1387 21 -1550 14z m1450 -143 c426 -23 906 -60 995 -76 14 -2 90 -11
170 -20 139 -16 387 -48 460 -61 220 -37 429 -74 445 -78 11 -2 90 -19 175
-36 264 -55 595 -144 830 -225 277 -95 584 -236 740 -340 117 -77 234 -195
274 -275 72 -144 36 -270 -117 -416 -103 -100 -193 -159 -382 -255 -347 -174
-817 -328 -1330 -435 -93 -20 -179 -38 -190 -40 -11 -3 -112 -21 -225 -40
-113 -19 -216 -37 -230 -39 -60 -11 -317 -45 -450 -60 -80 -9 -156 -18 -170
-20 -88 -16 -576 -53 -990 -76 -307 -17 -1217 -23 -1470 -10 -118 6 -305 16
-415 22 -282 14 -719 49 -805 64 -14 2 -90 11 -170 20 -139 16 -387 48 -460
61 -220 37 -429 74 -445 78 -11 2 -90 19 -175 36 -264 55 -651 159 -847 230
-569 204 -900 408 -1006 620 -18 36 -22 62 -22 130 0 78 3 92 38 164 94 197
378 376 852 535 467 156 943 276 1401 351 104 17 200 33 214 36 60 11 317 45
450 59 80 9 156 18 170 21 110 19 651 58 1035 75 143 6 262 13 265 16 9 9
1183 -5 1385 -16z"/>
<path d="M820 1875 c0 -82 37 -112 163 -131 50 -7 95 -18 100 -23 6 -6 5 -28
-3 -60 -7 -28 -9 -62 -6 -75 16 -63 89 -105 160 -92 47 9 101 57 111 98 l7 33
13 -40 c44 -134 -13 -293 -135 -374 -78 -53 -132 -71 -224 -78 -147 -10 -274
34 -367 127 -69 69 -99 140 -99 238 0 80 20 127 69 159 89 60 211 -7 211 -116
0 -58 -46 -144 -116 -214 l-57 -57 23 -25 c13 -14 29 -25 36 -25 7 0 31 21 55
48 105 118 153 237 129 322 -18 67 -89 134 -158 149 -88 18 -175 -11 -216 -74
-9 -14 -23 -51 -31 -83 -14 -52 -14 -68 -1 -134 20 -102 57 -171 130 -243 112
-110 204 -149 471 -196 312 -55 471 -116 577 -221 27 -26 48 -45 48 -42 0 2
-11 21 -24 42 -34 54 -137 146 -209 186 -73 41 -221 92 -294 102 l-53 7 60 28
c244 115 330 458 157 627 -68 67 -100 75 -252 68 -80 -4 -143 -3 -164 3 -41
13 -91 58 -91 83 0 10 -4 18 -10 18 -5 0 -10 -16 -10 -35z"/>
<path d="M11960 1892 c0 -25 -50 -70 -91 -83 -21 -6 -84 -7 -164 -3 -152 7
-184 -1 -252 -68 -174 -170 -89 -511 157 -627 l60 -29 -57 -7 c-74 -9 -211
-57 -293 -103 -70 -39 -156 -113 -201 -176 -36 -49 -38 -73 -3 -28 27 34 111
95 181 130 67 34 203 71 418 112 272 52 349 82 460 183 95 85 147 209 144 337
-4 154 -107 239 -250 209 -92 -20 -169 -112 -169 -203 0 -41 34 -129 71 -183
44 -63 108 -133 124 -133 6 0 22 11 34 24 l22 23 -56 57 c-108 111 -143 216
-96 292 38 63 139 82 200 37 47 -35 62 -79 59 -168 -5 -129 -70 -231 -186
-293 -246 -131 -551 -42 -634 186 -20 55 -23 150 -7 207 l12 40 10 -30 c22
-67 86 -110 154 -102 56 6 91 30 110 75 13 31 13 44 2 90 -8 36 -9 56 -2 63 6
6 44 15 84 20 93 12 146 35 165 70 16 32 19 99 4 99 -5 0 -10 -8 -10 -18z"/>
<path d="M3273 1480 c-87 -43 -163 -105 -225 -183 -74 -94 -27 -87 77 12 39
36 90 78 115 93 50 29 125 52 140 43 17 -10 -16 -48 -79 -90 -59 -39 -70 -57
-39 -63 21 -4 150 101 183 148 40 57 32 74 -36 78 -48 2 -66 -3 -136 -38z"/>
<path d="M9333 1503 c-4 -9 2 -32 14 -52 24 -43 169 -163 191 -159 29 6 22 24
-18 47 -61 34 -116 89 -102 103 8 8 25 6 62 -6 70 -23 123 -57 200 -131 58
-56 110 -89 110 -70 0 4 -16 29 -36 56 -89 122 -258 229 -360 229 -42 0 -56
-4 -61 -17z"/>
<path d="M2975 1361 c-22 -10 -53 -33 -70 -51 -30 -33 -30 -33 -5 -26 14 4 49
10 79 13 44 5 59 11 82 37 24 27 25 32 11 38 -29 11 -55 8 -97 -11z"/>
<path d="M9728 1373 c-16 -4 -14 -8 10 -39 23 -29 33 -34 69 -34 23 0 54 -5
69 -10 37 -14 42 -5 14 25 -44 47 -112 71 -162 58z"/>
<path d="M3134 1303 c-13 -14 -21 -29 -17 -33 22 -18 159 -73 193 -77 52 -7
80 1 125 37 53 42 98 41 125 -2 53 -88 38 -246 -33 -340 -40 -53 -113 -103
-162 -112 -46 -9 -54 -2 -30 24 18 20 18 20 -23 20 -23 0 -71 -12 -108 -26
-57 -23 -75 -26 -135 -21 l-69 6 32 -40 c106 -132 279 -223 462 -244 l59 -7
-22 30 c-20 29 -34 35 -107 47 -81 13 -274 111 -274 139 0 12 96 6 155 -10
107 -27 211 -104 256 -189 24 -44 25 -45 76 -45 28 0 55 5 58 11 10 16 -60
116 -100 141 -19 13 -35 27 -35 31 0 5 4 6 9 3 4 -3 23 -1 42 5 19 6 61 14 94
17 l60 7 -44 32 c-49 36 -129 57 -197 51 l-43 -3 49 50 c108 110 144 254 100
397 -26 85 -67 128 -123 128 -35 0 -45 -6 -86 -50 -33 -36 -54 -50 -72 -50
-15 0 -60 22 -103 50 -42 28 -79 50 -82 50 -3 0 -16 -12 -30 -27z"/>
<path d="M9226 1305 c-50 -46 -70 -109 -70 -215 0 -125 24 -187 105 -274 l59
-64 -43 5 c-65 8 -149 -14 -199 -50 l-43 -32 60 -6 c33 -4 74 -11 90 -17 17
-5 36 -7 43 -5 6 3 12 0 12 -6 0 -6 -4 -11 -10 -11 -33 0 -140 -136 -125 -160
3 -5 29 -10 56 -10 46 0 51 3 67 32 27 52 108 133 160 161 80 44 232 73 256
50 10 -10 -117 -89 -182 -113 -31 -12 -74 -24 -96 -27 -53 -7 -85 -23 -104
-51 l-16 -24 60 7 c186 22 330 98 458 242 l37 42 -73 -6 c-64 -5 -81 -2 -135
21 -34 14 -81 26 -104 26 -40 0 -41 -1 -26 -18 26 -28 21 -35 -20 -27 -50 9
-86 29 -134 72 -94 85 -130 254 -77 361 20 40 28 47 57 50 26 3 43 -4 73 -29
68 -54 126 -51 266 14 l64 30 -30 30 -30 30 -77 -52 c-44 -29 -88 -51 -103
-51 -18 0 -40 15 -74 50 -41 43 -53 50 -86 50 -28 0 -47 -7 -66 -25z"/>
<path d="M4685 1292 c-33 -16 -89 -54 -125 -84 l-64 -56 -29 38 c-35 48 -99
80 -160 80 l-46 0 24 -46 c14 -25 28 -69 31 -96 6 -47 8 -50 33 -44 14 3 75
10 135 17 l108 12 52 53 c57 59 90 68 121 34 29 -32 17 -124 -24 -183 -66 -96
-214 -186 -406 -246 -55 -17 -111 -40 -124 -51 -27 -23 -25 -24 55 -9 160 28
366 121 469 211 62 55 116 138 139 216 18 59 18 63 1 108 -13 35 -25 49 -51
60 -48 20 -71 18 -139 -14z"/>
<path d="M7974 1306 c-23 -10 -36 -26 -49 -60 -17 -44 -17 -50 -1 -108 44
-159 207 -302 432 -379 78 -26 214 -59 247 -59 29 0 -66 49 -133 69 -277 84
-453 227 -453 368 0 50 24 83 61 83 18 0 42 -17 78 -54 l52 -53 108 -12 c60
-7 121 -14 135 -17 25 -6 26 -3 32 46 4 29 18 72 32 96 l26 44 -47 0 c-62 0
-125 -31 -164 -80 l-31 -39 -52 50 c-57 54 -175 119 -216 119 -14 -1 -40 -7
-57 -14z"/>
<path d="M3046 1224 c-89 -31 -151 -41 -312 -53 -140 -11 -175 -20 -213 -54
-35 -33 -50 -76 -61 -183 -16 -155 -65 -231 -154 -241 -67 -8 -112 4 -151 41
-57 54 -48 95 31 142 31 18 -52 97 -155 147 l-86 42 -115 -1 c-123 -1 -171
-13 -267 -70 l-46 -27 23 -17 c21 -16 25 -15 93 19 59 29 84 35 154 39 102 6
156 -8 234 -60 l58 -39 -25 -36 c-13 -20 -24 -50 -24 -68 0 -76 109 -162 220
-172 48 -5 67 -1 112 20 87 39 129 108 148 243 26 191 62 182 280 -65 110
-125 136 -149 138 -132 6 40 -14 74 -121 208 -58 73 -109 143 -113 155 -9 28
13 44 74 52 121 17 277 56 352 88 43 18 44 20 26 34 -24 17 -16 18 -100 -12z"/>
<path d="M9652 1236 c-23 -12 -23 -13 25 -33 75 -32 222 -69 353 -89 55 -8 80
-20 80 -39 0 -15 -103 -155 -182 -247 -37 -44 -50 -67 -54 -102 -4 -25 -5 -46
-2 -46 3 0 45 46 94 103 183 211 233 255 273 242 25 -7 39 -44 51 -131 18
-130 62 -202 147 -241 69 -32 136 -28 217 11 103 51 141 137 92 209 l-26 38
59 38 c80 51 133 64 234 59 71 -4 94 -10 154 -40 66 -34 71 -35 92 -19 l21 16
-42 28 c-24 15 -78 39 -121 52 -176 56 -356 14 -477 -111 -42 -43 -44 -47 -26
-58 50 -31 66 -49 66 -75 0 -61 -73 -111 -161 -111 -107 0 -163 75 -179 237
-10 111 -21 147 -53 182 -35 38 -77 50 -218 61 -165 13 -227 24 -320 55 -40
14 -73 25 -73 25 -1 -1 -12 -7 -24 -14z"/>
<path d="M540 1181 c-19 -15 -86 -62 -147 -104 -111 -75 -113 -76 -113 -49 0
37 -33 88 -69 107 -17 8 -32 15 -35 15 -3 0 6 -21 20 -47 31 -59 28 -107 -16
-214 -17 -40 -29 -74 -27 -75 2 -2 27 22 57 53 64 65 102 92 230 164 52 29
119 68 148 87 l54 34 -28 29 c-15 16 -30 29 -33 29 -3 -1 -22 -13 -41 -29z"/>
<path d="M12185 1181 l-27 -29 54 -34 c29 -19 85 -52 123 -73 121 -67 200
-123 255 -180 28 -31 54 -54 56 -52 2 2 -10 37 -27 78 -44 107 -48 156 -16
213 29 52 25 56 -24 23 -38 -26 -59 -60 -59 -99 0 -26 -4 -24 -137 67 -76 52
-145 99 -154 105 -12 7 -23 2 -44 -19z"/>
<path d="M2980 1141 c-20 -6 -26 -17 -37 -66 -15 -73 -16 -225 -3 -320 23
-156 93 -330 176 -435 54 -68 98 -104 170 -137 62 -28 184 -44 184 -24 0 6 -6
11 -14 11 -8 0 -28 11 -43 25 l-28 24 35 1 c19 0 52 5 73 11 36 10 37 12 37
54 0 43 -12 65 -25 45 -15 -24 -86 -50 -137 -50 -62 0 -114 24 -171 78 -56 53
-157 215 -143 229 3 3 8 -1 12 -10 16 -42 177 -133 308 -175 74 -23 96 -26
261 -26 187 0 220 4 415 54 139 35 308 95 612 215 157 63 298 117 312 121 35
8 33 24 -7 63 l-34 32 -239 -101 c-446 -190 -661 -264 -874 -301 -118 -21
-338 -16 -434 10 -164 44 -357 163 -376 232 -43 155 -41 322 5 432 8 18 4 19
-35 8z m70 -536 c0 -5 -5 -3 -10 5 -5 8 -10 20 -10 25 0 6 5 3 10 -5 5 -8 10
-19 10 -25z"/>
<path d="M9785 1133 c39 -91 45 -237 16 -376 -10 -48 -20 -89 -22 -91 -122
-97 -201 -144 -312 -180 -291 -97 -644 -34 -1232 219 -93 40 -215 92 -269 114
l-100 42 -33 -33 c-40 -38 -42 -54 -7 -62 14 -4 155 -58 312 -120 344 -136
430 -167 579 -207 225 -60 314 -72 488 -66 198 7 320 47 473 153 34 24 62 40
62 36 0 -4 -22 -44 -49 -87 -84 -135 -163 -195 -259 -195 -51 0 -122 26 -137
50 -4 6 -11 8 -16 5 -12 -8 -12 -92 0 -99 5 -4 37 -9 72 -13 l62 -6 -27 -24
c-15 -12 -34 -23 -42 -23 -8 0 -14 -5 -14 -11 0 -8 20 -10 66 -6 250 20 451
321 471 707 5 107 -7 238 -25 266 -4 6 -20 14 -36 18 -25 6 -28 5 -21 -11z
m-29 -530 c-18 -33 -21 -26 -6 13 6 15 13 24 16 21 3 -3 -1 -18 -10 -34z"/>
<path d="M4410 1074 c-208 -33 -399 -144 -494 -289 -57 -85 -57 -84 21 -78 42
3 80 13 101 25 l32 20 -22 17 c-19 16 -20 21 -9 48 29 72 140 143 276 179 54
14 108 18 237 19 164 0 168 1 184 23 20 30 15 34 -49 43 -78 11 -182 9 -277
-7z"/>
<path d="M8103 1081 c-54 -9 -59 -14 -39 -43 16 -22 20 -23 184 -23 122 -1
185 -5 235 -18 128 -32 253 -113 276 -178 9 -25 7 -33 -9 -49 -19 -19 -18 -19
13 -38 28 -17 167 -38 167 -26 0 3 -18 34 -41 69 -97 154 -286 266 -509 300
-99 15 -204 17 -277 6z"/>
<path d="M451 1022 l-64 -35 44 -39 c116 -103 244 -169 394 -203 128 -29 189
-31 300 -10 108 21 165 40 260 87 104 52 116 63 84 78 -20 9 -35 6 -89 -18
-142 -65 -357 -85 -500 -49 -105 27 -219 89 -296 161 l-70 64 -63 -36z"/>
<path d="M12216 994 c-127 -119 -283 -178 -471 -178 -126 0 -224 20 -323 65
-58 26 -70 28 -94 18 -34 -14 -32 -15 72 -71 110 -59 292 -108 400 -108 119 0
284 46 402 112 77 43 198 139 198 157 0 3 -26 20 -58 37 l-57 32 -69 -64z"/>
<path d="M4821 999 c-13 -17 -21 -32 -19 -33 1 -2 29 -15 61 -29 69 -32 154
-110 190 -175 75 -138 69 -295 -13 -337 -37 -19 -100 -19 -145 -1 -42 18 -44
8 -9 -34 39 -45 75 -60 147 -60 87 0 144 19 337 110 91 43 190 86 220 95 30 9
67 21 82 25 31 10 170 6 208 -5 25 -8 25 -8 -5 24 -65 70 -140 88 -272 66
-103 -18 -128 -15 -136 16 -5 19 -6 19 -64 -2 -32 -12 -87 -35 -122 -50 -77
-35 -79 -35 -74 -6 7 35 -25 145 -58 204 -40 69 -123 144 -210 187 -40 20 -77
36 -83 36 -7 0 -22 -14 -35 -31z"/>
<path d="M7853 990 c-85 -45 -150 -101 -195 -170 -32 -50 -72 -173 -65 -200
10 -38 -8 -41 -74 -12 -35 16 -90 39 -122 51 -58 21 -59 21 -64 2 -8 -31 -33
-34 -136 -16 -132 22 -207 4 -272 -65 l-30 -33 30 9 c17 5 66 8 110 8 105 0
187 -26 395 -124 194 -92 251 -110 340 -110 58 0 72 4 108 30 36 25 62 57 62
74 0 3 -16 -2 -35 -10 -45 -18 -108 -18 -145 1 -79 41 -89 188 -23 319 35 69
123 158 187 189 30 15 60 27 65 27 6 0 11 3 11 8 -1 12 -48 62 -59 62 -5 0
-45 -18 -88 -40z"/>
<path d="M5414 990 c-81 -9 -246 -45 -286 -63 l-27 -12 34 -37 34 -37 118 30
c155 39 328 49 423 25 180 -46 280 -141 282 -269 2 -69 -15 -117 -55 -155 -83
-81 -218 -82 -370 -5 -27 13 -51 23 -53 21 -2 -2 10 -27 26 -55 51 -89 122
-127 259 -138 78 -7 119 -24 106 -45 -3 -4 2 -13 10 -20 28 -23 56 2 99 91 34
70 45 84 62 81 28 -4 34 19 34 123 0 238 -123 391 -360 448 -81 20 -242 28
-336 17z"/>
<path d="M7138 990 c-284 -34 -448 -200 -448 -455 0 -45 3 -96 6 -113 5 -26 9
-30 24 -22 23 12 30 4 73 -91 19 -42 42 -79 51 -82 23 -9 46 2 46 24 0 27 25
36 117 44 99 9 188 46 226 96 28 39 60 99 52 99 -3 0 -27 -11 -53 -24 -156
-79 -296 -73 -378 15 -40 43 -51 80 -47 148 9 136 117 232 307 273 84 18 263
4 399 -31 l119 -31 19 23 c40 47 42 56 12 68 -53 20 -196 49 -287 59 -102 11
-142 11 -238 0z"/>
<path d="M4331 979 c-24 -5 -45 -10 -45 -11 -80 -128 -162 -209 -281 -277 -80
-46 -204 -95 -287 -112 -27 -6 -48 -13 -48 -15 0 -17 36 -54 52 -54 33 0 191
57 280 100 120 59 258 155 374 259 128 114 131 121 56 120 -31 -1 -77 -5 -101
-10z"/>
<path d="M8335 950 c123 -129 344 -287 500 -357 94 -42 214 -83 245 -83 15 0
50 38 50 54 0 2 -21 9 -47 15 -128 27 -273 91 -367 161 -64 46 -163 153 -183
196 -19 38 -30 42 -148 50 l-90 7 40 -43z"/>
<path d="M2493 774 c-8 -21 25 -47 95 -74 74 -28 97 -25 37 6 -27 14 -67 39
-88 55 -32 26 -38 28 -44 13z"/>
<path d="M10275 770 c-11 -11 -49 -36 -85 -56 -57 -31 -61 -35 -30 -30 46 8
140 54 147 73 10 25 -11 34 -32 13z"/>
<path d="M3610 323 c0 -56 -68 -113 -135 -113 -35 0 -31 -16 6 -24 95 -19 164
3 197 63 30 52 29 91 0 91 -13 0 -33 3 -45 6 -20 6 -23 3 -23 -23z"/>
<path d="M9133 343 c-29 -4 -33 -8 -33 -33 0 -37 30 -87 67 -111 29 -19 92
-25 152 -13 38 8 41 24 4 24 -15 0 -46 9 -69 20 -40 20 -58 46 -66 94 -3 22
-10 24 -55 19z"/>
</g>
</svg>
